<?xml version="1.0" standalone="no"?>
<!DOCTYPE svg PUBLIC "-//W3C//DTD SVG 20010904//EN"
 "http://www.w3.org/TR/2001/REC-SVG-20010904/DTD/svg10.dtd">
<svg version="1.0" xmlns="http://www.w3.org/2000/svg"
 width="512.000000pt" height="512.000000pt" viewBox="0 0 512.000000 512.000000"
 preserveAspectRatio="xMidYMid meet">

<g transform="translate(0.000000,512.000000) scale(0.100000,-0.100000)"
fill="#FFFFFF" stroke="none">
<path d="M2066 4949 c-62 -15 -153 -68 -197 -116 -22 -24 -55 -74 -72 -111
l-32 -67 -5 -538 -5 -537 -38 26 c-73 50 -141 67 -270 68 -118 1 -119 1 -143
-27 l-24 -28 0 -407 0 -407 -77 -350 c-75 -343 -76 -353 -76 -490 0 -77 5
-169 12 -205 7 -36 58 -211 113 -389 l101 -324 -196 -393 c-108 -217 -197
-406 -197 -419 0 -54 70 -92 121 -65 20 11 439 837 439 866 0 8 -49 172 -109
362 -119 378 -139 478 -126 622 3 41 40 231 81 423 l74 347 0 366 0 366 58 -7
c118 -14 195 -77 234 -195 21 -62 22 -83 25 -520 2 -282 7 -465 14 -480 6 -14
37 -45 71 -70 78 -58 182 -169 263 -278 151 -203 259 -485 282 -732 5 -53 11
-70 34 -92 35 -35 72 -36 106 -2 25 25 26 29 20 105 -8 99 -50 287 -89 398
-89 253 -279 532 -467 687 l-71 58 0 1099 c0 834 3 1110 12 1141 16 55 99 138
154 154 59 17 1529 17 1588 0 55 -16 138 -99 154 -154 9 -30 12 -179 12 -547
l0 -505 -68 -68 c-77 -78 -110 -139 -118 -222 -11 -106 43 -229 126 -287 l39
-27 -81 -96 c-105 -124 -123 -164 -122 -267 1 -118 48 -203 143 -265 l50 -33
-42 -49 c-101 -118 -128 -156 -144 -203 -24 -68 -21 -168 5 -228 28 -63 101
-138 162 -167 l50 -23 0 -80 c0 -44 -5 -98 -12 -121 -16 -55 -99 -138 -154
-154 -30 -9 -163 -12 -473 -12 l-432 0 -24 -25 c-33 -32 -33 -78 0 -111 l25
-25 463 3 462 3 67 32 c92 43 151 100 195 190 34 70 37 82 41 186 l4 112 59
28 c48 22 77 48 154 135 120 135 139 171 143 280 4 77 2 88 -27 147 -33 67
-105 141 -148 151 -21 6 -18 12 56 98 98 114 123 161 129 247 8 115 -43 230
-127 284 -17 11 -31 23 -31 27 0 4 15 28 34 52 124 162 81 385 -93 479 -27 15
-73 31 -101 34 l-50 6 0 332 0 333 78 89 c58 65 88 91 117 101 59 19 113 7
156 -37 35 -34 62 -98 54 -124 -2 -7 -6 -24 -9 -39 -3 -15 -62 -93 -131 -174
-103 -121 -125 -153 -125 -179 0 -67 82 -99 134 -52 51 46 236 272 256 312
104 214 -48 459 -285 459 -78 0 -143 -24 -206 -74 l-36 -29 -6 67 c-9 88 -60
194 -123 251 -25 24 -75 57 -112 74 l-67 32 -795 2 c-459 1 -811 -3 -834 -8z
m1969 -1500 c55 -14 109 -70 119 -122 23 -121 -113 -252 -225 -218 -96 29
-143 125 -105 214 21 50 77 107 121 122 49 17 38 17 90 4z m85 -551 c58 -30
90 -77 90 -135 0 -64 -19 -97 -118 -200 -94 -99 -122 -113 -199 -98 -50 9
-109 69 -118 119 -12 62 9 109 92 204 82 94 100 110 141 122 44 14 66 11 112
-12z m-17 -652 c55 -23 89 -69 95 -125 2 -27 2 -60 -1 -73 -10 -37 -154 -201
-199 -225 -52 -29 -102 -29 -152 0 -52 29 -80 77 -80 137 0 57 15 83 114 191
96 107 146 128 223 95z"/>
<path d="M2585 4615 c-16 -15 -25 -36 -25 -55 0 -19 9 -40 25 -55 l24 -25 271
0 271 0 24 25 c16 15 25 36 25 55 0 19 -9 40 -25 55 l-24 25 -271 0 -271 0
-24 -25z"/>
<path d="M2745 1575 c-16 -15 -25 -36 -25 -55 0 -19 9 -40 25 -55 23 -24 31
-25 135 -25 104 0 112 1 135 25 16 15 25 36 25 55 0 19 -9 40 -25 55 -23 24
-31 25 -135 25 -104 0 -112 -1 -135 -25z"/>
<path d="M3464 933 c-13 -16 -45 -57 -71 -92 -93 -126 -224 -186 -435 -198
-57 -3 -111 -10 -121 -15 -22 -12 -197 -360 -197 -393 0 -54 70 -92 121 -65
11 6 53 77 93 159 l74 147 106 12 c116 14 225 46 299 88 108 60 267 243 267
306 0 70 -90 104 -136 51z"/>
</g>
</svg>
