<?xml version="1.0" standalone="no"?>
<!DOCTYPE svg PUBLIC "-//W3C//DTD SVG 20010904//EN"
 "http://www.w3.org/TR/2001/REC-SVG-20010904/DTD/svg10.dtd">
<svg version="1.0" xmlns="http://www.w3.org/2000/svg"
 width="512.000000pt" height="512.000000pt" viewBox="0 0 512.000000 512.000000"
 preserveAspectRatio="xMidYMid meet">

<g transform="translate(0.000000,512.000000) scale(0.100000,-0.100000)"
fill="#E11D48" stroke="none">
<path d="M1202 4810 c-92 -13 -227 -48 -310 -81 -448 -178 -755 -551 -864
-1051 -26 -120 -37 -542 -19 -735 38 -413 179 -781 429 -1117 89 -120 283
-316 402 -408 47 -36 447 -302 889 -592 573 -375 812 -526 832 -526 19 0 207
119 656 416 345 229 712 473 816 541 231 153 355 252 480 383 347 365 549 809
598 1315 14 148 6 479 -14 590 -38 205 -91 359 -182 533 -194 371 -516 620
-925 713 -126 29 -338 36 -478 15 -347 -51 -671 -242 -882 -519 -36 -47 -67
-86 -70 -86 -3 0 -34 38 -70 85 -191 251 -465 427 -780 501 -84 19 -139 25
-275 28 -93 2 -198 0 -233 -5z m446 -184 c316 -69 540 -221 763 -516 142 -189
155 -188 306 10 125 163 154 193 265 280 462 360 1114 327 1539 -77 198 -188
338 -458 399 -770 28 -139 38 -420 21 -588 -58 -567 -336 -1074 -774 -1407
-43 -33 -268 -185 -500 -338 l-422 -280 -3 260 -2 259 40 57 c46 65 93 182
109 268 20 108 13 270 -24 547 -31 233 -35 290 -35 482 l0 217 83 0 c46 0 106
7 134 15 66 20 148 93 179 160 22 46 24 63 24 208 0 87 -4 167 -10 177 -16 29
-66 40 -183 40 l-111 0 -96 95 c-68 66 -115 103 -156 122 -58 28 -62 28 -249
28 -185 0 -191 -1 -247 -27 -110 -51 -220 -178 -298 -343 -75 -159 -100 -285
-100 -510 l0 -111 -143 -142 c-129 -128 -147 -142 -178 -142 l-35 0 -33 138
c-47 191 -54 202 -127 202 -31 0 -42 -10 -129 -112 -165 -192 -205 -302 -205
-563 l0 -150 -116 -175 c-64 -96 -118 -177 -120 -179 -2 -2 -38 26 -81 62 -96
80 -248 236 -332 339 -34 43 -71 82 -81 88 -54 29 -120 -11 -120 -74 0 -28 14
-52 75 -128 94 -116 277 -301 372 -375 l71 -56 -40 -61 c-23 -34 -43 -63 -44
-65 -2 -2 -38 22 -80 55 -399 305 -664 746 -757 1259 -19 106 -22 156 -22 430
0 334 5 378 61 558 111 350 357 625 684 763 89 37 199 68 295 83 87 14 347 6
433 -13z m1468 -931 c20 -8 87 -64 149 -125 l113 -110 101 0 101 0 0 -89 c0
-74 -3 -92 -21 -115 -36 -45 -56 -51 -212 -56 -203 -7 -187 22 -187 -327 l0
-275 -77 6 c-43 4 -116 16 -163 27 -87 21 -327 127 -313 139 5 4 28 12 51 19
54 15 124 82 143 137 10 27 14 89 14 199 l0 160 -82 3 -82 3 -3 -155 c-4 -189
-5 -191 -106 -191 l-67 0 2 125 c3 147 22 247 68 347 59 129 151 243 220 274
53 25 296 27 351 4z m-460 -1149 c137 -62 257 -94 398 -108 67 -6 122 -12 124
-13 1 -1 14 -84 27 -185 29 -211 32 -365 9 -454 -16 -64 -62 -163 -95 -204
-10 -13 -96 -83 -191 -154 -95 -71 -178 -139 -185 -151 -9 -16 -12 -111 -13
-349 l0 -328 -82 -55 -83 -55 -5 302 c-3 167 -9 311 -14 321 -12 24 -38 37
-77 37 -27 0 -48 -16 -140 -107 l-109 -107 0 97 0 96 59 91 c94 143 104 176
109 371 l4 166 51 24 c29 12 75 46 103 74 69 69 94 137 101 275 7 137 -5 186
-52 206 -19 8 -47 14 -62 14 -52 1 -107 35 -171 108 -35 39 -79 81 -99 93
l-35 22 62 62 61 61 103 -52 c57 -30 148 -73 202 -98z m-880 23 c36 -135 33
-133 218 -139 148 -5 154 -6 189 -33 20 -15 37 -32 37 -36 0 -5 23 -32 52 -61
47 -47 152 -110 186 -110 22 0 16 -149 -8 -188 -24 -38 -72 -70 -120 -78 -57
-10 -70 -15 -90 -37 -18 -19 -20 -36 -20 -207 0 -228 -6 -252 -100 -395 l-70
-106 0 -155 c0 -121 3 -162 16 -185 8 -17 14 -32 12 -33 -4 -3 -875 567 -891
583 -7 7 57 111 211 343 l222 333 0 161 c0 180 9 243 44 321 25 53 75 127 83
120 2 -3 15 -47 29 -98z m1294 -1498 l0 -248 -78 -52 c-43 -28 -81 -51 -85
-51 -4 0 -7 107 -7 238 l1 237 82 62 c45 34 83 62 85 62 1 1 2 -111 2 -248z
m-682 -406 l-3 -64 -42 27 c-43 27 -43 27 -43 87 0 56 2 61 43 103 l42 43 3
-66 c2 -36 2 -94 0 -130z"/>
<path d="M4635 3515 c-22 -21 -25 -33 -25 -98 0 -94 21 -127 80 -127 65 0 84
25 88 114 4 73 3 76 -26 106 -39 38 -83 40 -117 5z"/>
<path d="M369 3091 c-23 -19 -24 -25 -23 -138 2 -134 21 -253 65 -395 25 -84
34 -100 59 -113 39 -20 62 -19 93 5 36 29 41 65 17 135 -32 94 -60 245 -67
366 -7 132 -21 159 -83 159 -22 0 -47 -8 -61 -19z"/>
<path d="M4632 3086 c-15 -20 -20 -49 -26 -138 -7 -124 -34 -270 -66 -363 -24
-70 -19 -106 17 -135 31 -24 54 -25 93 -5 25 13 34 29 59 113 39 125 59 234
67 366 10 148 -9 186 -90 186 -25 0 -40 -7 -54 -24z"/>
<path d="M4398 2249 c-9 -5 -45 -44 -79 -87 -35 -42 -108 -124 -163 -181 -166
-170 -298 -270 -546 -411 -159 -91 -185 -110 -194 -146 -12 -47 37 -104 88
-104 18 0 307 167 413 238 185 125 361 287 514 475 74 90 89 114 89 143 0 63
-69 104 -122 73z"/>
<path d="M2900 3455 l0 -85 85 0 85 0 0 85 0 85 -85 0 -85 0 0 -85z"/>
<path d="M1960 2175 l0 -85 85 0 85 0 0 85 0 85 -85 0 -85 0 0 -85z"/>
</g>
</svg>
