<?xml version="1.0" standalone="no"?>
<!DOCTYPE svg PUBLIC "-//W3C//DTD SVG 20010904//EN"
 "http://www.w3.org/TR/2001/REC-SVG-20010904/DTD/svg10.dtd">
<svg version="1.0" xmlns="http://www.w3.org/2000/svg"
 width="512.000000pt" height="512.000000pt" viewBox="0 0 512.000000 512.000000"
 preserveAspectRatio="xMidYMid meet">

<g transform="translate(0.000000,512.000000) scale(0.100000,-0.100000)"
fill="#E11D48" stroke="none">
<path d="M2785 5100 c-27 -5 -81 -16 -120 -24 -38 -8 -105 -19 -149 -25 -102
-14 -182 -53 -276 -134 -134 -116 -1205 -1199 -1239 -1254 -127 -202 -116
-474 25 -659 l34 -44 -61 -73 c-209 -247 -450 -603 -639 -941 -143 -257 -350
-698 -350 -746 0 -31 44 -70 78 -70 17 0 39 8 50 18 12 9 49 80 82 157 222
508 551 1051 882 1457 l79 97 60 -30 c33 -17 101 -39 152 -50 286 -59 578 29
778 234 163 166 401 578 499 861 27 76 29 91 18 114 -19 39 -60 59 -95 46 -32
-11 -45 -35 -104 -184 -96 -248 -309 -600 -444 -736 -157 -157 -397 -226 -620
-179 -95 20 -170 59 -231 119 -94 95 -139 233 -117 362 24 140 10 123 682 797
535 536 624 622 676 647 124 61 253 47 367 -38 72 -54 109 -59 145 -18 31 37
29 68 -8 111 l-31 35 70 0 c239 0 488 -104 657 -275 28 -27 107 -122 175 -209
95 -121 132 -162 155 -168 17 -5 112 -6 213 -2 l182 7 0 -49 c1 -104 35 -176
100 -213 20 -11 117 -45 215 -76 99 -31 202 -63 229 -72 l48 -15 -4 -82 c-7
-119 -53 -194 -143 -232 -16 -7 -340 -60 -719 -119 -652 -101 -692 -106 -753
-95 -132 23 -249 81 -367 183 -45 39 -67 51 -92 51 -59 0 -94 -51 -71 -105 30
-73 292 -239 427 -270 30 -7 56 -14 58 -14 1 -1 -30 -52 -70 -112 -40 -61 -83
-128 -95 -149 l-22 -39 -1 61 c0 75 -27 121 -82 142 -66 26 -93 12 -255 -125
-481 -409 -783 -847 -962 -1397 -117 -358 -156 -672 -137 -1101 6 -152 5 -237
-3 -308 -11 -86 -10 -102 4 -123 28 -43 101 -44 129 -1 27 41 39 181 31 367
-15 355 -6 523 40 776 96 518 359 1028 730 1413 86 90 336 313 343 306 2 -1
-2 -106 -8 -231 -14 -297 -19 -317 -113 -410 -68 -67 -76 -73 -142 -87 -78
-18 -105 -41 -105 -89 0 -38 40 -78 77 -78 43 0 130 26 190 56 64 33 160 131
187 192 18 39 22 42 50 37 17 -2 114 -10 216 -16 223 -13 301 -28 383 -71 148
-79 236 -214 262 -404 30 -216 43 -247 118 -282 32 -15 74 -22 172 -27 139 -8
167 -14 204 -48 29 -27 60 -93 61 -127 0 -29 -100 -373 -120 -410 -31 -59 -74
-101 -133 -129 -59 -29 -81 -33 -402 -66 -187 -20 -363 -42 -390 -50 -110 -31
-185 -134 -185 -256 0 -63 4 -75 76 -220 41 -84 83 -159 92 -166 45 -34 122 7
122 64 0 15 -29 88 -65 162 -77 157 -81 187 -32 235 l32 32 265 28 c528 55
555 62 669 171 78 75 100 120 168 340 47 158 57 203 58 265 0 128 -61 228
-177 290 -58 31 -72 34 -205 43 -133 9 -144 12 -148 31 -2 12 -11 71 -20 133
-27 194 -73 293 -194 414 -148 148 -246 183 -580 206 -174 13 -234 20 -238 30
-8 20 113 272 205 429 42 72 137 208 185 264 l28 33 542 83 c720 111 778 121
829 143 66 28 139 92 176 154 58 97 64 136 60 441 -3 258 -4 273 -25 313 -30
56 -87 100 -152 120 -47 13 -113 15 -481 12 l-428 -4 -119 150 c-183 229 -280
312 -469 402 -146 69 -259 94 -444 98 -85 2 -177 0 -205 -5z m2141 -833 c22
-25 24 -37 24 -123 0 -52 -3 -94 -6 -94 -27 0 -402 125 -411 138 -14 17 -18
94 -6 106 4 4 90 6 191 4 l184 -3 24 -28z"/>
<path d="M3285 4451 c-45 -20 -70 -60 -70 -112 0 -42 5 -53 33 -81 28 -28 39
-33 82 -33 43 0 54 5 82 33 28 28 33 39 33 82 0 42 -5 54 -31 81 -33 33 -92
46 -129 30z"/>
<path d="M3385 1841 c-45 -20 -70 -60 -70 -112 0 -42 5 -53 33 -81 28 -28 39
-33 82 -33 43 0 54 5 82 33 28 28 33 39 33 82 0 42 -5 54 -31 81 -33 33 -92
46 -129 30z"/>
</g>
</svg>
