<?xml version="1.0" standalone="no"?>
<!DOCTYPE svg PUBLIC "-//W3C//DTD SVG 20010904//EN"
 "http://www.w3.org/TR/2001/REC-SVG-20010904/DTD/svg10.dtd">
<svg version="1.0" xmlns="http://www.w3.org/2000/svg"
 width="512.000000pt" height="512.000000pt" viewBox="0 0 512.000000 512.000000"
 preserveAspectRatio="xMidYMid meet">

<g transform="translate(0.000000,512.000000) scale(0.100000,-0.100000)"
fill="#E11D48" stroke="none">
<path d="M1357 5108 c-30 -24 -38 -63 -18 -100 9 -18 311 -433 669 -922 l652
-889 -16 -26 c-9 -14 -44 -62 -77 -106 -206 -274 -427 -482 -722 -680 -71 -48
-160 -112 -198 -142 -93 -76 -250 -244 -318 -339 -97 -135 -154 -242 -231
-433 l-14 -35 -37 60 c-187 297 -286 640 -257 890 19 170 82 338 176 472 95
135 94 133 94 182 0 55 -27 102 -79 137 -50 34 -105 30 -183 -10 -285 -149
-490 -450 -553 -811 -30 -173 -11 -569 30 -632 27 -42 101 -38 125 6 9 17 8
49 -5 138 -21 145 -21 358 -1 474 46 254 180 482 369 623 64 48 136 90 143 82
3 -2 -29 -54 -69 -115 -199 -297 -249 -604 -158 -966 53 -207 138 -394 278
-604 l75 -114 -16 -106 c-9 -59 -20 -137 -24 -175 l-7 -67 -76 48 c-183 118
-332 304 -415 517 -14 39 -35 78 -46 87 -46 41 -118 8 -118 -53 0 -61 94 -257
185 -384 95 -132 286 -293 425 -357 l50 -23 0 -105 c0 -178 41 -308 132 -426
48 -62 142 -137 204 -164 92 -40 120 -41 955 -38 l805 3 41 27 c80 53 99 152
47 248 -59 110 -181 216 -298 261 l-55 21 48 38 c96 76 161 171 210 307 l28
77 41 -130 c22 -71 84 -271 138 -444 59 -192 106 -327 120 -346 46 -62 58 -64
411 -64 365 0 370 1 411 80 29 58 28 83 -6 155 -59 123 -196 232 -316 250
l-43 7 -27 153 c-57 328 -77 475 -83 600 -7 160 5 212 81 359 70 137 91 220
90 356 -1 92 -11 150 -78 460 -82 377 -97 486 -76 583 19 92 93 174 179 196
20 6 164 17 320 26 308 18 347 25 430 85 92 67 191 249 191 350 0 62 -27 119
-72 153 -44 33 -361 197 -380 197 -9 0 -27 -9 -42 -21 -29 -23 -36 -73 -13
-101 6 -9 90 -57 185 -108 199 -106 195 -99 138 -215 -40 -82 -77 -125 -133
-154 -35 -18 -78 -22 -324 -36 -295 -17 -361 -27 -434 -70 -54 -32 -128 -110
-156 -166 l-24 -47 -330 137 c-181 75 -338 140 -347 144 -15 5 -10 22 42 129
32 68 79 182 104 253 67 188 115 312 146 375 23 46 28 72 33 160 7 146 48 259
154 425 52 81 52 80 58 74 3 -4 105 -451 105 -464 0 -15 57 -36 125 -46 44 -6
94 -17 111 -25 18 -9 61 -50 97 -93 54 -65 79 -85 145 -119 44 -23 91 -42 104
-42 55 0 90 87 51 122 -10 9 -46 31 -80 50 -44 24 -82 57 -127 110 -72 85
-131 120 -231 139 -33 7 -61 13 -63 14 -1 1 -27 114 -58 250 -30 137 -58 253
-61 259 -29 53 -85 76 -133 56 -36 -15 -133 -138 -206 -262 -92 -156 -143
-315 -144 -444 0 -46 -7 -77 -29 -125 -26 -57 -65 -162 -162 -429 -32 -88
-156 -351 -181 -384 -14 -17 -64 48 -644 840 -346 472 -642 874 -658 891 -30
35 -69 43 -99 21z m1889 -2017 l359 -149 7 -93 c3 -52 6 -95 5 -96 -3 -2 -822
338 -829 345 -10 10 71 142 87 142 7 0 174 -67 371 -149z m-66 -321 c256 -106
468 -195 473 -199 11 -11 116 -506 123 -581 9 -95 -16 -195 -80 -325 -87 -177
-91 -195 -90 -385 0 -129 7 -202 28 -335 48 -294 94 -543 106 -565 14 -26 49
-40 103 -40 44 0 108 -25 159 -61 28 -20 88 -102 88 -121 0 -4 -127 -8 -283
-8 l-283 0 -218 703 c-119 386 -223 712 -231 723 -27 41 -90 36 -120 -10 -15
-23 -15 -30 2 -103 25 -108 25 -351 0 -443 -24 -88 -77 -196 -121 -246 -75
-87 -221 -158 -375 -184 -104 -17 -138 -52 -110 -114 19 -42 56 -50 197 -43
143 8 227 -5 308 -46 66 -33 135 -96 174 -157 56 -87 118 -81 -794 -78 l-801
3 -57 28 c-69 34 -156 125 -191 199 -39 84 -47 145 -47 363 0 382 49 601 195
883 78 149 154 251 290 387 94 95 153 143 275 225 85 58 200 140 255 184 120
94 386 360 470 469 38 49 66 76 75 74 8 -2 224 -91 480 -197z"/>
</g>
</svg>
