<?xml version="1.0" standalone="no"?>
<!DOCTYPE svg PUBLIC "-//W3C//DTD SVG 20010904//EN"
 "http://www.w3.org/TR/2001/REC-SVG-20010904/DTD/svg10.dtd">
<svg version="1.0" xmlns="http://www.w3.org/2000/svg"
 width="512.000000pt" height="512.000000pt" viewBox="0 0 512.000000 512.000000"
 preserveAspectRatio="xMidYMid meet">

<g transform="translate(0.000000,512.000000) scale(0.100000,-0.100000)"
fill="#E11D48" stroke="none">
<path d="M2019 5106 c-56 -20 -96 -53 -126 -104 l-28 -47 -5 -335 -5 -335
-159 -338 c-184 -391 -170 -336 -181 -753 -5 -180 -4 -268 4 -282 13 -25 60
-42 88 -31 47 17 50 35 61 365 l10 310 152 325 c83 178 158 349 166 379 11 41
14 128 14 355 1 315 1 319 47 343 16 9 326 12 1213 12 l1192 0 29 -29 29 -29
0 -309 c0 -191 4 -323 11 -348 6 -22 79 -184 161 -360 l151 -320 8 -130 c5
-71 30 -806 55 -1633 l46 -1503 -24 -47 c-14 -27 -42 -59 -67 -77 l-43 -30
-876 -3 -877 -2 3 57 c2 38 -18 177 -58 403 -33 189 -60 347 -60 351 0 3 27 9
60 12 32 4 103 23 156 44 l97 37 46 -18 c25 -9 71 -27 101 -39 81 -31 260 -31
345 1 178 67 314 229 345 412 38 227 -80 454 -291 561 -47 23 -65 41 -104 98
-154 232 -444 307 -689 178 -71 -37 -172 -133 -207 -197 -20 -37 -38 -52 -99
-85 -91 -49 -184 -139 -225 -217 -17 -32 -34 -58 -38 -58 -4 0 -24 8 -45 19
-116 58 -287 59 -422 2 l-70 -29 -60 24 c-33 14 -98 30 -145 36 -67 8 -85 14
-85 27 0 9 7 206 15 439 10 304 11 430 3 447 -23 50 -102 53 -128 5 -7 -12
-16 -180 -25 -441 -7 -231 -16 -423 -18 -426 -3 -2 -22 4 -44 15 -136 68 -355
90 -404 41 -25 -25 -25 -81 1 -104 15 -13 40 -18 102 -20 139 -5 223 -34 331
-113 l49 -35 76 11 c101 14 175 1 265 -45 l70 -36 76 41 c126 67 252 73 367
17 92 -45 180 -152 199 -242 l7 -33 -978 0 -977 0 6 36 c12 73 63 159 146 247
45 48 81 95 81 106 0 31 -42 74 -73 74 -57 -1 -167 -105 -235 -224 -28 -50
-63 -144 -77 -211 -5 -27 -8 -28 -63 -28 -34 0 -74 -8 -98 -19 -45 -21 -99
-80 -114 -126 -15 -50 -160 -891 -160 -932 1 -81 77 -180 157 -202 26 -8 745
-11 2329 -11 2526 0 2340 -5 2440 63 66 44 119 117 139 192 16 59 15 133 -29
1561 -25 824 -50 1564 -55 1644 l-8 145 -159 335 -158 335 -6 340 c-6 377 -4
369 -76 439 -72 70 5 66 -1333 66 -959 -1 -1213 -4 -1242 -14z m1360 -2965
c81 -25 157 -84 201 -155 56 -93 66 -101 149 -145 150 -78 224 -192 224 -346
0 -150 -75 -270 -211 -337 -61 -30 -74 -33 -162 -33 -87 0 -101 3 -170 34
-105 48 -184 49 -290 2 -47 -21 -97 -35 -135 -39 l-61 -4 -18 40 c-26 57 -76
102 -137 122 -52 18 -53 19 -69 77 -20 73 -53 141 -91 189 -32 41 -32 48 8
128 32 64 101 129 171 162 68 31 116 74 144 128 42 81 150 165 242 187 57 13
144 9 205 -10z m-625 -1020 c13 -15 37 -130 92 -443 41 -233 74 -436 74 -452
0 -17 -10 -40 -22 -53 l-21 -23 -1329 0 -1329 0 -24 25 c-14 13 -25 33 -25 44
0 37 149 871 160 890 5 11 15 22 22 24 7 3 547 6 1199 6 1161 1 1186 1 1203
-18z"/>
<path d="M1299 1023 c-52 -8 -132 -66 -163 -116 -35 -58 -45 -142 -26 -215 12
-41 36 -70 195 -231 l182 -184 52 -5 52 -5 185 184 c202 201 220 228 218 329
-2 65 -20 114 -63 162 -87 99 -261 110 -353 21 l-26 -25 -34 25 c-69 52 -146
73 -219 60z m146 -204 c86 -83 118 -84 194 -5 59 61 99 74 148 49 48 -23 72
-78 54 -121 -7 -15 -76 -92 -154 -170 l-143 -142 -147 148 c-141 143 -147 150
-147 189 0 30 7 50 25 72 47 55 99 49 170 -20z"/>
<path d="M2237 4683 c-8 -10 -19 -30 -22 -45 -6 -22 -1 -33 23 -58 l30 -30
597 0 c503 0 600 2 624 15 46 23 54 66 20 109 l-20 26 -618 0 c-576 0 -619 -1
-634 -17z"/>
<path d="M3730 4680 c-27 -27 -26 -81 1 -106 20 -18 39 -19 279 -19 240 0 259
1 279 19 27 25 28 79 1 106 -19 19 -33 20 -280 20 -247 0 -261 -1 -280 -20z"/>
<path d="M2821 3183 c-26 -9 -65 -36 -92 -63 -65 -65 -79 -116 -79 -290 0
-175 14 -224 80 -290 34 -35 62 -53 101 -64 65 -20 92 -20 155 -1 64 19 118
65 152 129 26 50 27 55 27 226 0 171 -1 176 -27 226 -63 119 -193 171 -317
127z m140 -149 c46 -23 59 -66 59 -196 0 -141 -11 -183 -53 -208 -39 -24 -68
-25 -108 -4 -47 24 -59 66 -59 202 0 137 10 176 54 203 38 23 67 24 107 3z"/>
<path d="M3550 3191 c-83 -26 -151 -93 -174 -172 -22 -73 -22 -306 0 -378 28
-97 140 -181 239 -181 51 0 127 27 167 60 20 17 49 56 65 88 27 55 28 61 28
222 0 161 -1 167 -28 222 -16 32 -45 71 -65 88 -60 49 -163 72 -232 51z m118
-155 c49 -25 57 -56 57 -206 0 -151 -8 -181 -57 -206 -35 -18 -62 -18 -98 1
-50 26 -60 59 -60 205 0 145 9 178 58 204 34 19 66 20 100 2z"/>
<path d="M2280 2729 c-68 -13 -130 -57 -167 -118 -45 -75 -50 -123 -24 -229
63 -252 94 -309 192 -352 106 -45 219 -22 292 60 79 87 85 155 32 352 -40 147
-51 173 -97 219 -58 57 -144 83 -228 68z m119 -176 c24 -23 36 -50 60 -145 40
-150 40 -181 2 -219 -24 -23 -38 -29 -74 -29 -78 0 -92 23 -147 238 -23 92
-20 114 18 155 20 21 35 27 69 27 33 0 50 -6 72 -27z"/>
<path d="M4153 2729 c-79 -14 -144 -61 -177 -127 -36 -72 -90 -279 -89 -344 0
-212 245 -326 418 -194 47 36 79 108 119 263 31 124 34 149 26 193 -12 62 -29
96 -71 138 -59 60 -141 85 -226 71z m118 -178 c42 -42 41 -64 -3 -226 -20 -75
-38 -119 -55 -136 -61 -66 -175 -21 -176 68 -1 64 62 269 91 298 37 37 103 35
143 -4z"/>
<path d="M3942 563 c-7 -3 -19 -18 -28 -35 -13 -25 -13 -35 -3 -59 6 -17 20
-34 30 -39 10 -6 132 -10 282 -10 263 0 264 0 285 23 29 31 29 80 0 107 -21
19 -33 20 -287 19 -146 0 -272 -3 -279 -6z"/>
</g>
</svg>
