<?xml version="1.0" standalone="no"?>
<!DOCTYPE svg PUBLIC "-//W3C//DTD SVG 20010904//EN"
 "http://www.w3.org/TR/2001/REC-SVG-20010904/DTD/svg10.dtd">
<svg version="1.0" xmlns="http://www.w3.org/2000/svg"
 width="512.000000pt" height="512.000000pt" viewBox="0 0 512.000000 512.000000"
 preserveAspectRatio="xMidYMid meet">

<g transform="translate(0.000000,512.000000) scale(0.100000,-0.100000)"
fill="#E11D48" stroke="none">
<path d="M2021 4944 c-168 -45 -311 -197 -378 -399 -38 -116 -44 -307 -14
-425 55 -217 207 -396 380 -447 267 -77 539 112 628 437 24 89 24 300 0 390
-32 122 -92 227 -176 310 -134 133 -279 177 -440 134z m244 -178 c221 -109
303 -476 165 -746 -32 -63 -115 -146 -176 -176 -154 -75 -338 9 -427 197 -44
92 -57 155 -57 271 0 157 45 281 140 381 102 108 229 134 355 73z"/>
<path d="M3283 4945 c-142 -38 -269 -149 -340 -295 -59 -122 -77 -201 -77
-345 0 -136 21 -231 75 -338 221 -437 738 -404 923 58 150 376 -33 832 -369
920 -72 18 -143 18 -212 0z m231 -175 c152 -72 259 -297 241 -509 -22 -261
-179 -446 -376 -443 -220 3 -395 293 -350 579 29 190 139 345 274 389 58 19
151 12 211 -16z"/>
<path d="M1010 4129 c-194 -38 -359 -213 -422 -448 -28 -107 -28 -286 1 -394
116 -437 546 -596 831 -308 110 112 168 237 192 413 38 286 -105 592 -327 698
-94 44 -182 57 -275 39z m202 -181 c57 -24 146 -115 181 -184 46 -91 61 -160
61 -279 0 -218 -92 -393 -242 -463 -157 -73 -336 7 -425 191 -47 97 -62 164
-61 277 2 336 242 563 486 458z"/>
<path d="M4351 4129 c-150 -29 -291 -149 -371 -314 -50 -105 -72 -204 -71
-335 0 -548 513 -845 855 -497 53 53 82 94 113 157 62 127 77 192 77 345 0
153 -15 218 -77 345 -31 64 -59 103 -112 155 -82 82 -148 120 -242 140 -75 16
-107 17 -172 4z m206 -184 c137 -62 243 -262 243 -460 0 -139 -61 -303 -144
-389 -100 -102 -232 -130 -348 -73 -101 50 -187 166 -223 304 -21 76 -21 240
0 316 70 263 273 393 472 302z"/>
<path d="M2537 3550 c-492 -77 -870 -362 -1103 -832 l-49 -98 -50 0 c-72 0
-226 -28 -314 -57 -495 -161 -828 -601 -848 -1118 -8 -221 30 -401 124 -590
174 -349 492 -590 878 -666 103 -21 359 -18 463 5 555 120 955 584 979 1137
l6 127 76 6 c99 9 255 -9 355 -41 45 -14 164 -67 266 -119 221 -112 318 -142
475 -151 184 -10 276 24 357 132 93 123 141 313 140 565 0 317 -64 592 -203
875 -83 170 -174 300 -294 420 -152 153 -312 257 -505 328 -166 62 -269 79
-495 82 -110 2 -226 0 -258 -5z m460 -165 c423 -69 756 -331 957 -756 134
-284 202 -624 177 -893 -22 -229 -84 -373 -178 -412 -60 -26 -223 -15 -343 23
-30 9 -125 53 -210 96 -289 148 -407 181 -651 180 l-146 0 -26 94 c-87 308
-283 566 -553 730 -115 69 -280 133 -400 154 -35 6 -64 14 -64 17 0 3 25 50
55 103 212 374 508 592 900 663 108 19 365 20 482 1z m-1414 -940 c405 -71
735 -379 849 -793 18 -65 21 -105 22 -252 0 -158 -3 -184 -26 -271 -145 -536
-662 -872 -1203 -784 -224 36 -423 140 -585 304 -216 218 -320 486 -307 791
12 282 119 522 320 717 160 155 342 250 550 288 99 18 277 18 380 0z"/>
<path d="M2972 3184 c-21 -10 -43 -62 -36 -88 8 -35 30 -51 105 -75 128 -42
284 -145 384 -253 165 -177 257 -397 291 -691 8 -74 33 -107 80 -107 24 0 43
8 61 26 24 24 25 29 18 92 -51 489 -284 843 -683 1039 -108 54 -184 73 -220
57z"/>
<path d="M1321 2330 c-62 -13 -117 -53 -142 -102 -19 -37 -21 -53 -16 -128 3
-47 9 -95 12 -107 5 -15 1 -24 -13 -32 -18 -9 -24 -5 -52 38 -41 65 -108 125
-154 141 -67 22 -150 -7 -223 -79 -58 -56 -86 -114 -86 -179 0 -68 33 -118
123 -185 43 -32 64 -54 62 -65 -5 -24 -4 -24 -57 -12 -208 47 -319 -34 -317
-233 0 -95 38 -170 102 -205 41 -22 53 -23 130 -18 47 3 97 8 111 12 21 5 27
2 32 -15 4 -16 -3 -26 -31 -43 -51 -31 -121 -97 -136 -127 -39 -78 -21 -163
55 -245 62 -68 117 -96 191 -96 41 0 64 6 88 23 32 21 96 93 130 145 21 33 54
20 46 -17 -4 -14 -9 -64 -12 -111 -5 -77 -4 -89 18 -130 37 -68 105 -100 212
-100 105 0 178 33 214 95 21 36 23 49 18 135 -2 52 -8 105 -11 116 -5 16 -2
23 14 27 15 4 28 -8 60 -53 70 -99 120 -132 203 -131 58 0 100 20 161 80 138
132 124 252 -43 375 -38 28 -54 47 -52 59 3 16 9 17 45 10 23 -4 78 -8 123 -8
71 0 86 3 121 27 59 39 86 102 87 203 0 129 -52 211 -150 233 -37 8 -152 0
-195 -13 -11 -4 -21 1 -28 13 -9 17 -3 24 44 57 134 92 171 183 118 290 -41
82 -115 145 -196 167 -85 22 -174 -29 -247 -143 -27 -41 -35 -47 -50 -39 -15
8 -17 17 -12 48 4 20 7 76 7 123 0 78 -2 89 -27 121 -51 67 -170 100 -277 78z
m123 -160 c22 -8 26 -16 26 -52 0 -24 -9 -80 -20 -125 -27 -112 -17 -137 65
-163 22 -7 62 -23 89 -37 31 -15 63 -23 85 -21 32 3 40 11 98 98 61 90 87 120
105 120 14 0 86 -70 91 -89 7 -29 -4 -40 -110 -111 -92 -61 -98 -68 -101 -102
-2 -24 5 -53 21 -85 13 -26 30 -66 37 -88 25 -81 50 -91 158 -65 87 21 152 27
169 17 16 -10 25 -77 15 -112 -11 -40 -46 -43 -174 -14 l-99 22 -27 -20 c-16
-12 -35 -43 -47 -79 -12 -32 -29 -75 -40 -94 -20 -38 -22 -84 -5 -105 6 -7 42
-32 79 -54 37 -22 82 -53 100 -70 31 -29 32 -31 17 -60 -18 -35 -62 -71 -85
-71 -23 0 -60 41 -115 128 -64 100 -76 104 -175 58 -44 -20 -86 -36 -93 -36
-22 0 -59 -30 -68 -56 -7 -17 -3 -50 11 -110 11 -47 19 -104 17 -127 l-3 -42
-49 -3 c-82 -5 -96 2 -96 49 0 23 9 82 21 131 21 90 21 90 2 117 -11 14 -38
32 -59 40 -21 7 -67 27 -102 43 -89 41 -101 35 -185 -90 -54 -80 -73 -102 -91
-102 -48 0 -114 78 -95 112 5 9 52 44 104 78 121 78 127 90 86 180 -17 36 -36
83 -43 104 -7 22 -25 48 -40 59 -27 20 -29 20 -100 3 -102 -25 -183 -32 -193
-16 -12 19 -9 120 3 132 16 16 82 11 176 -12 52 -13 86 -16 101 -10 25 10 55
47 55 68 0 8 16 49 35 92 45 100 41 114 -57 176 -87 55 -128 92 -128 115 0 24
37 67 73 86 31 16 31 15 60 -18 16 -19 47 -65 69 -102 22 -37 49 -72 59 -77
28 -16 67 -12 112 11 23 12 64 29 91 39 28 9 59 28 69 42 19 25 19 27 -2 116
-28 121 -28 170 2 182 30 12 70 12 101 0z"/>
<path d="M1475 1621 c-36 -15 -50 -42 -46 -93 2 -30 38 -58 76 -58 45 0 75 29
75 74 0 58 -54 98 -105 77z"/>
<path d="M1164 1466 c-75 -33 -49 -146 33 -146 46 0 77 30 77 74 0 62 -53 96
-110 72z"/>
<path d="M1495 1280 c-39 -43 -14 -125 40 -130 69 -7 105 19 105 75 0 49 -29
75 -83 75 -32 0 -49 -6 -62 -20z"/>
</g>
</svg>
